# xmcd CD database file
#
# Track frame offsets:
#	180
#	50795
#	79610
#	98485
#	114490
#	147302
#	171160
#
# Disc length: 2942 seconds
#
# Revision: 0
# Processed by: cddbd v1.5.1PL2 Copyright (c) Steve Scherf et al.
# Submitted via: CDex 1.51
#
DISCID=560b7c07
DTITLE=Rongwrong - The Story Of Alfons Czahor
DYEAR=1995
DGENRE=experimental
TTITLE0=Zawiazanie
TTITLE1=Czahor
TTITLE2=Borzobohaty
TTITLE3=Dajna II
TTITLE4=A Moc blagandarnosci
TTITLE5=Aphonia rozwianie
TTITLE6=Epiphonema
EXTD=YEAR: 1995
EXTT0=
EXTT1=
EXTT2=
EXTT3=
EXTT4=
EXTT5=
EXTT6=
PLAYORDER=
